<svg width="32" height="32" viewBox="0 0 32 32" fill="none" xmlns="http://www.w3.org/2000/svg">
<rect width="32" height="32" rx="4" fill="black"/>
<g clip-path="url(#clip0_2994_99016)">
<path fill-rule="evenodd" clip-rule="evenodd" d="M8.83391 5.67626C10.5479 4.08764 12.926 3 15.5731 3H15.9026C18.5497 3 20.9278 4.08764 22.6418 5.67626C24.3438 7.25368 25.4757 9.40913 25.4757 11.6178V18.5028C25.4757 19.1505 24.9507 19.6756 24.303 19.6756C23.6553 19.6756 23.1302 19.1505 23.1302 18.5028V11.6178C23.1302 10.2028 22.3844 8.63571 21.0474 7.39654C19.7225 6.16856 17.9004 5.34552 15.9026 5.34552H15.5731C13.5754 5.34552 11.7532 6.16856 10.4283 7.39654C9.0913 8.63571 8.34552 10.2028 8.34552 11.6178V17.5936H12.0812C12.7289 17.5936 13.254 18.1187 13.254 18.7664C13.254 19.4141 12.7289 19.9391 12.0812 19.9391H7.17276C6.52506 19.9391 6 19.4141 6 18.7664V11.6178C6 9.40913 7.13195 7.25368 8.83391 5.67626Z" fill="#43FF6B"/>
<path fill-rule="evenodd" clip-rule="evenodd" d="M21.0814 12.5484C21.5135 13.0074 21.4918 13.7298 21.0328 14.162L16.5197 18.4116C16.0607 18.8437 15.3383 18.822 14.9061 18.363C14.474 17.9041 14.4957 17.1817 14.9547 16.7495L19.4678 12.4999C19.9268 12.0677 20.6492 12.0894 21.0814 12.5484Z" fill="#05F3FF"/>
<path fill-rule="evenodd" clip-rule="evenodd" d="M15.5087 7.21484C16.1391 7.21484 16.6501 7.72589 16.6501 8.35631V22.9829C16.6501 23.6133 16.1391 24.1243 15.5087 24.1243C14.8782 24.1243 14.3672 23.6133 14.3672 22.9829V8.35631C14.3672 7.72589 14.8782 7.21484 15.5087 7.21484Z" fill="#05F3FF"/>
<path fill-rule="evenodd" clip-rule="evenodd" d="M15.5089 24.1247C14.793 24.1247 14.2126 24.7051 14.2126 25.421C14.2126 26.1369 14.793 26.7173 15.5089 26.7173C16.2248 26.7173 16.8052 26.1369 16.8052 25.421C16.8052 24.7051 16.2248 24.1247 15.5089 24.1247ZM11.9297 25.421C11.9297 23.4443 13.5322 21.8418 15.5089 21.8418C17.4857 21.8418 19.0881 23.4443 19.0881 25.421C19.0881 27.3978 17.4857 29.0002 15.5089 29.0002C13.5322 29.0002 11.9297 27.3978 11.9297 25.421Z" fill="#05F3FF"/>
</g>
<defs>
<clipPath id="clip0_2994_99016">
<rect width="19.5" height="26" fill="white" transform="translate(6 3)"/>
</clipPath>
</defs>
</svg>
